<?xml version="1.0" encoding="utf-8" standalone="no"?>
<!DOCTYPE svg PUBLIC "-//W3C//DTD SVG 1.1//EN"
  "http://www.w3.org/Graphics/SVG/1.1/DTD/svg11.dtd">
<svg xmlns:xlink="http://www.w3.org/1999/xlink" width="504pt" height="216pt" viewBox="0 0 504 216" xmlns="http://www.w3.org/2000/svg" version="1.1">
 <metadata>
  <rdf:RDF xmlns:dc="http://purl.org/dc/elements/1.1/" xmlns:cc="http://creativecommons.org/ns#" xmlns:rdf="http://www.w3.org/1999/02/22-rdf-syntax-ns#">
   <cc:Work>
    <dc:type rdf:resource="http://purl.org/dc/dcmitype/StillImage"/>
    <dc:date>2022-09-15T11:05:19.320048</dc:date>
    <dc:format>image/svg+xml</dc:format>
    <dc:creator>
     <cc:Agent>
      <dc:title>Matplotlib v3.5.1, https://matplotlib.org/</dc:title>
     </cc:Agent>
    </dc:creator>
   </cc:Work>
  </rdf:RDF>
 </metadata>
 <defs>
  <style type="text/css">*{stroke-linejoin: round; stroke-linecap: butt}</style>
 </defs>
 <g id="figure_1">
  <g id="patch_1">
   <path d="M 0 216 
L 504 216 
L 504 0 
L 0 0 
z
" style="fill: #ffffff"/>
  </g>
  <g id="axes_1">
   <g id="patch_2">
    <path d="M 43.217746 178.497015 
L 493.2 178.497015 
L 493.2 10.8 
L 43.217746 10.8 
z
" style="fill: #ffffff"/>
   </g>
   <g id="PathCollection_1">
    <defs>
     <path id="mccacb0e388" d="M 0 3 
C 0.795609 3 1.55874 2.683901 2.12132 2.12132 
C 2.683901 1.55874 3 0.795609 3 0 
C 3 -0.795609 2.683901 -1.55874 2.12132 -2.12132 
C 1.55874 -2.683901 0.795609 -3 0 -3 
C -0.795609 -3 -1.55874 -2.683901 -2.12132 -2.12132 
C -2.683901 -1.55874 -3 -0.795609 -3 0 
C -3 0.795609 -2.683901 1.55874 -2.12132 2.12132 
C -1.55874 2.683901 -0.795609 3 0 3 
z
" style="stroke: #000000"/>
    </defs>
    <g clip-path="url(#p115cce3f99)">
     <use xlink:href="#mccacb0e388" x="228.183133" y="126.675969" style="stroke: #000000"/>
    </g>
   </g>
   <g id="PathCollection_2">
    <g clip-path="url(#p115cce3f99)">
     <use xlink:href="#mccacb0e388" x="228.183133" y="126.675969" style="stroke: #000000"/>
     <use xlink:href="#mccacb0e388" x="192.742097" y="131.892754" style="stroke: #000000"/>
    </g>
   </g>
   <g id="PathCollection_3">
    <g clip-path="url(#p115cce3f99)">
     <use xlink:href="#mccacb0e388" x="228.183133" y="126.675969" style="stroke: #000000"/>
     <use xlink:href="#mccacb0e388" x="192.742097" y="131.892754" style="stroke: #000000"/>
     <use xlink:href="#mccacb0e388" x="195.507718" y="135.830023" style="stroke: #000000"/>
    </g>
   </g>
   <g id="PathCollection_4">
    <g clip-path="url(#p115cce3f99)">
     <use xlink:href="#mccacb0e388" x="228.183133" y="126.675969" style="stroke: #000000"/>
     <use xlink:href="#mccacb0e388" x="192.742097" y="131.892754" style="stroke: #000000"/>
     <use xlink:href="#mccacb0e388" x="195.507718" y="135.830023" style="stroke: #000000"/>
     <use xlink:href="#mccacb0e388" x="286.650664" y="53.898012" style="stroke: #000000"/>
    </g>
   </g>
   <g id="PathCollection_5">
    <g clip-path="url(#p115cce3f99)">
     <use xlink:href="#mccacb0e388" x="228.183133" y="126.675969" style="stroke: #000000"/>
     <use xlink:href="#mccacb0e388" x="192.742097" y="131.892754" style="stroke: #000000"/>
     <use xlink:href="#mccacb0e388" x="195.507718" y="135.830023" style="stroke: #000000"/>
     <use xlink:href="#mccacb0e388" x="286.650664" y="53.898012" style="stroke: #000000"/>
     <use xlink:href="#mccacb0e388" x="285.834492" y="51.473662" style="stroke: #000000"/>
    </g>
   </g>
   <g id="PathCollection_6">
    <path d="M 399.024159 109.162995 
L 405.024159 103.162995 
M 399.024159 103.162995 
L 405.024159 109.162995 
" clip-path="url(#p115cce3f99)" style="fill: #0065bd; stroke: #0065bd; stroke-width: 1.5"/>
    <path d="M 173.912373 138.822208 
L 179.912373 132.822208 
M 173.912373 132.822208 
L 179.912373 138.822208 
" clip-path="url(#p115cce3f99)" style="fill: #e37222; stroke: #e37222; stroke-width: 1.5"/>
    <path d="M 469.372733 52.902782 
L 475.372733 46.902782 
M 469.372733 46.902782 
L 475.372733 52.902782 
" clip-path="url(#p115cce3f99)" style="fill: #b0c4de; stroke: #b0c4de; stroke-width: 1.5"/>
   </g>
   <g id="PolyCollection_1">
    <path d="M -609.405505 216.968247 
L -609.405505 4700.726515 
L -571.987396 4700.726515 
L -534.569286 4700.726515 
L -497.151177 4700.726515 
L -459.733067 4700.726515 
L -422.314958 4700.726515 
L -384.896848 4700.726515 
L -347.478739 4700.726515 
L -310.060629 4700.726515 
L -272.64252 4700.726515 
L -235.224411 4700.726515 
L -197.806301 4700.726515 
L -160.388192 4700.726515 
L -122.970082 4700.726515 
L -85.551973 4700.726515 
L -48.133863 4700.726515 
L -10.715754 4700.726515 
L 26.702355 4700.726515 
L 64.120465 4700.726515 
L 101.538574 4700.726515 
L 138.956684 4700.726515 
L 176.374793 4700.726515 
L 213.792903 4700.726515 
L 251.211012 4700.726515 
L 288.629122 4700.726515 
L 326.047231 4700.726515 
L 363.46534 4700.726515 
L 400.88345 4700.726515 
L 438.301559 4700.726515 
L 475.719669 4700.726515 
L 513.137778 4700.726515 
L 550.555888 4700.726515 
L 587.973997 4700.726515 
L 625.392106 4700.726515 
L 662.810216 4700.726515 
L 700.228325 4700.726515 
L 737.646435 4700.726515 
L 775.064544 4700.726515 
L 812.482654 4700.726515 
L 849.900763 4700.726515 
L 887.318873 4700.726515 
L 924.736982 4700.726515 
L 962.155091 4700.726515 
L 999.573201 4700.726515 
L 1036.99131 4700.726515 
L 1074.40942 4700.726515 
L 1111.827529 4700.726515 
L 1149.245639 4700.726515 
L 1186.663748 4700.726515 
L 1224.081857 4700.726515 
L 1224.081857 156.914626 
L 1224.081857 156.914626 
L 1186.663748 156.914626 
L 1149.245639 156.914626 
L 1111.827529 156.914626 
L 1074.40942 156.914626 
L 1036.99131 156.914626 
L 999.573201 156.914626 
L 962.155091 156.914626 
L 924.736982 156.914626 
L 887.318873 156.914626 
L 849.900763 156.914626 
L 812.482654 150.887778 
L 775.064544 143.216018 
L 737.646435 136.221946 
L 700.228325 130.242891 
L 662.810216 125.394494 
L 625.392106 121.806146 
L 587.973997 119.310728 
L 550.555888 117.967844 
L 513.137778 117.706678 
L 475.719669 118.455219 
L 438.301559 120.326065 
L 400.88345 123.606507 
L 363.46534 128.2426 
L 326.047231 133.924091 
L 288.629122 140.427599 
L 251.211012 147.590764 
L 213.792903 155.126654 
L 176.374793 162.67077 
L 138.956684 170.253979 
L 101.538574 177.798799 
L 64.120465 185.189655 
L 26.702355 193.182743 
L -10.715754 201.283853 
L -48.133863 208.512207 
L -85.551973 215.840441 
L -122.970082 216.968247 
L -160.388192 216.968247 
L -197.806301 216.968247 
L -235.224411 216.968247 
L -272.64252 216.968247 
L -310.060629 216.968247 
L -347.478739 216.968247 
L -384.896848 216.968247 
L -422.314958 216.968247 
L -459.733067 216.968247 
L -497.151177 216.968247 
L -534.569286 216.968247 
L -571.987396 216.968247 
L -609.405505 216.968247 
z
" clip-path="url(#p115cce3f99)" style="fill: #e9e9e9; stroke: #e9e9e9"/>
   </g>
   <g id="PolyCollection_2">
    <path d="M -609.405505 -4624.388634 
L -609.405505 132.05758 
L -571.987396 132.05758 
L -534.569286 132.05758 
L -497.151177 132.05758 
L -459.733067 132.05758 
L -422.314958 132.05758 
L -384.896848 132.05758 
L -347.478739 132.05758 
L -310.060629 132.05758 
L -272.64252 132.05758 
L -235.224411 132.05758 
L -197.806301 132.05758 
L -160.388192 132.05758 
L -122.970082 132.05758 
L -85.551973 130.951665 
L -48.133863 123.563594 
L -10.715754 116.082213 
L 26.702355 107.96935 
L 64.120465 99.652484 
L 101.538574 91.6121 
L 138.956684 83.985343 
L 176.374793 76.604688 
L 213.792903 69.274121 
L 251.211012 62.920301 
L 288.629122 57.530702 
L 326.047231 51.926211 
L 363.46534 46.479546 
L 400.88345 42.743737 
L 438.301559 40.475083 
L 475.719669 38.806215 
L 513.137778 38.168941 
L 550.555888 38.435108 
L 587.973997 39.969537 
L 625.392106 42.716286 
L 662.810216 46.631628 
L 700.228325 51.572452 
L 737.646435 57.429395 
L 775.064544 63.788255 
L 812.482654 71.142701 
L 849.900763 77.777709 
L 887.318873 77.777709 
L 924.736982 77.777709 
L 962.155091 77.777709 
L 999.573201 77.777709 
L 1036.99131 77.777709 
L 1074.40942 77.777709 
L 1111.827529 77.777709 
L 1149.245639 77.777709 
L 1186.663748 77.777709 
L 1224.081857 77.777709 
L 1224.081857 -4624.388634 
L 1224.081857 -4624.388634 
L 1186.663748 -4624.388634 
L 1149.245639 -4624.388634 
L 1111.827529 -4624.388634 
L 1074.40942 -4624.388634 
L 1036.99131 -4624.388634 
L 999.573201 -4624.388634 
L 962.155091 -4624.388634 
L 924.736982 -4624.388634 
L 887.318873 -4624.388634 
L 849.900763 -4624.388634 
L 812.482654 -4624.388634 
L 775.064544 -4624.388634 
L 737.646435 -4624.388634 
L 700.228325 -4624.388634 
L 662.810216 -4624.388634 
L 625.392106 -4624.388634 
L 587.973997 -4624.388634 
L 550.555888 -4624.388634 
L 513.137778 -4624.388634 
L 475.719669 -4624.388634 
L 438.301559 -4624.388634 
L 400.88345 -4624.388634 
L 363.46534 -4624.388634 
L 326.047231 -4624.388634 
L 288.629122 -4624.388634 
L 251.211012 -4624.388634 
L 213.792903 -4624.388634 
L 176.374793 -4624.388634 
L 138.956684 -4624.388634 
L 101.538574 -4624.388634 
L 64.120465 -4624.388634 
L 26.702355 -4624.388634 
L -10.715754 -4624.388634 
L -48.133863 -4624.388634 
L -85.551973 -4624.388634 
L -122.970082 -4624.388634 
L -160.388192 -4624.388634 
L -197.806301 -4624.388634 
L -235.224411 -4624.388634 
L -272.64252 -4624.388634 
L -310.060629 -4624.388634 
L -347.478739 -4624.388634 
L -384.896848 -4624.388634 
L -422.314958 -4624.388634 
L -459.733067 -4624.388634 
L -497.151177 -4624.388634 
L -534.569286 -4624.388634 
L -571.987396 -4624.388634 
L -609.405505 -4624.388634 
z
" clip-path="url(#p115cce3f99)" style="fill: #e9e9e9; stroke: #e9e9e9"/>
   </g>
   <g id="matplotlib.axis_1">
    <g id="xtick_1">
     <g id="line2d_1">
      <path d="M 72.562355 178.497015 
L 72.562355 10.8 
" clip-path="url(#p115cce3f99)" style="fill: none; stroke: #b0b0b0; stroke-width: 0.8; stroke-linecap: square"/>
     </g>
     <g id="line2d_2">
      <defs>
       <path id="ma7aa62f215" d="M 0 0 
L 0 3.5 
" style="stroke: #000000; stroke-width: 0.8"/>
      </defs>
      <g>
       <use xlink:href="#ma7aa62f215" x="72.562355" y="178.497015" style="stroke: #000000; stroke-width: 0.8"/>
      </g>
     </g>
     <g id="text_1">
      <!-- $\mathdefault{610}$ -->
      <g transform="translate(66.605499 190.339953)scale(0.07 -0.07)">
       <defs>
        <path id="CMR17-36" d="M 678 2176 
C 678 3690 1395 4032 1811 4032 
C 1946 4032 2272 4009 2400 3776 
C 2298 3776 2106 3776 2106 3553 
C 2106 3381 2246 3323 2336 3323 
C 2394 3323 2566 3348 2566 3560 
C 2566 3954 2246 4179 1805 4179 
C 1043 4179 243 3390 243 1984 
C 243 253 966 -128 1478 -128 
C 2099 -128 2688 427 2688 1283 
C 2688 2081 2170 2662 1517 2662 
C 1126 2662 838 2407 678 1960 
L 678 2176 
z
M 1478 25 
C 691 25 691 1200 691 1436 
C 691 1896 909 2560 1504 2560 
C 1613 2560 1926 2560 2138 2120 
C 2253 1870 2253 1609 2253 1289 
C 2253 944 2253 690 2118 434 
C 1978 171 1773 25 1478 25 
z
" transform="scale(0.015625)"/>
        <path id="CMR17-31" d="M 1702 4058 
C 1702 4192 1696 4192 1606 4192 
C 1357 3916 979 3827 621 3827 
C 602 3827 570 3827 563 3808 
C 557 3795 557 3782 557 3648 
C 755 3648 1088 3686 1344 3839 
L 1344 461 
C 1344 236 1331 160 781 160 
L 589 160 
L 589 0 
C 896 0 1216 0 1523 0 
C 1830 0 2150 0 2458 0 
L 2458 160 
L 2266 160 
C 1715 160 1702 230 1702 458 
L 1702 4058 
z
" transform="scale(0.015625)"/>
        <path id="CMR17-30" d="M 2688 2025 
C 2688 2416 2682 3080 2413 3591 
C 2176 4039 1798 4198 1466 4198 
C 1158 4198 768 4058 525 3597 
C 269 3118 243 2524 243 2025 
C 243 1661 250 1106 448 619 
C 723 -39 1216 -128 1466 -128 
C 1760 -128 2208 -7 2470 600 
C 2662 1042 2688 1559 2688 2025 
z
M 1466 -26 
C 1056 -26 813 325 723 812 
C 653 1188 653 1738 653 2096 
C 653 2588 653 2997 736 3387 
C 858 3929 1216 4096 1466 4096 
C 1728 4096 2067 3923 2189 3400 
C 2272 3036 2278 2607 2278 2096 
C 2278 1680 2278 1169 2202 792 
C 2067 95 1690 -26 1466 -26 
z
" transform="scale(0.015625)"/>
       </defs>
       <use xlink:href="#CMR17-36" transform="scale(0.996264)"/>
       <use xlink:href="#CMR17-31" transform="translate(45.690477 0)scale(0.996264)"/>
       <use xlink:href="#CMR17-30" transform="translate(91.380954 0)scale(0.996264)"/>
      </g>
     </g>
    </g>
    <g id="xtick_2">
     <g id="line2d_3">
      <path d="M 128.46136 178.497015 
L 128.46136 10.8 
" clip-path="url(#p115cce3f99)" style="fill: none; stroke: #b0b0b0; stroke-width: 0.8; stroke-linecap: square"/>
     </g>
     <g id="line2d_4">
      <g>
       <use xlink:href="#ma7aa62f215" x="128.46136" y="178.497015" style="stroke: #000000; stroke-width: 0.8"/>
      </g>
     </g>
     <g id="text_2">
      <!-- $\mathdefault{620}$ -->
      <g transform="translate(122.504504 190.339953)scale(0.07 -0.07)">
       <defs>
        <path id="CMR17-32" d="M 2669 989 
L 2554 989 
C 2490 536 2438 459 2413 420 
C 2381 369 1920 369 1830 369 
L 602 369 
C 832 619 1280 1072 1824 1597 
C 2214 1967 2669 2402 2669 3035 
C 2669 3790 2067 4224 1395 4224 
C 691 4224 262 3604 262 3030 
C 262 2780 448 2748 525 2748 
C 589 2748 781 2787 781 3010 
C 781 3207 614 3264 525 3264 
C 486 3264 448 3258 422 3245 
C 544 3790 915 4058 1306 4058 
C 1862 4058 2227 3617 2227 3035 
C 2227 2479 1901 2000 1536 1584 
L 262 146 
L 262 0 
L 2515 0 
L 2669 989 
z
" transform="scale(0.015625)"/>
       </defs>
       <use xlink:href="#CMR17-36" transform="scale(0.996264)"/>
       <use xlink:href="#CMR17-32" transform="translate(45.690477 0)scale(0.996264)"/>
       <use xlink:href="#CMR17-30" transform="translate(91.380954 0)scale(0.996264)"/>
      </g>
     </g>
    </g>
    <g id="xtick_3">
     <g id="line2d_5">
      <path d="M 184.360365 178.497015 
L 184.360365 10.8 
" clip-path="url(#p115cce3f99)" style="fill: none; stroke: #b0b0b0; stroke-width: 0.8; stroke-linecap: square"/>
     </g>
     <g id="line2d_6">
      <g>
       <use xlink:href="#ma7aa62f215" x="184.360365" y="178.497015" style="stroke: #000000; stroke-width: 0.8"/>
      </g>
     </g>
     <g id="text_3">
      <!-- $\mathdefault{630}$ -->
      <g transform="translate(178.403509 190.339953)scale(0.07 -0.07)">
       <defs>
        <path id="CMR17-33" d="M 1414 2157 
C 1984 2157 2234 1662 2234 1090 
C 2234 320 1824 25 1453 25 
C 1114 25 563 194 390 693 
C 422 680 454 680 486 680 
C 640 680 755 782 755 948 
C 755 1133 614 1216 486 1216 
C 378 1216 211 1165 211 926 
C 211 335 787 -128 1466 -128 
C 2176 -128 2720 430 2720 1085 
C 2720 1707 2208 2157 1600 2227 
C 2086 2328 2554 2756 2554 3329 
C 2554 3820 2048 4179 1472 4179 
C 890 4179 378 3829 378 3329 
C 378 3110 544 3072 627 3072 
C 762 3072 877 3155 877 3321 
C 877 3486 762 3569 627 3569 
C 602 3569 570 3569 544 3557 
C 730 3959 1235 4032 1459 4032 
C 1683 4032 2106 3925 2106 3320 
C 2106 3143 2080 2828 1862 2550 
C 1670 2304 1453 2304 1242 2284 
C 1210 2284 1062 2269 1037 2269 
C 992 2263 966 2257 966 2208 
C 966 2163 973 2157 1101 2157 
L 1414 2157 
z
" transform="scale(0.015625)"/>
       </defs>
       <use xlink:href="#CMR17-36" transform="scale(0.996264)"/>
       <use xlink:href="#CMR17-33" transform="translate(45.690477 0)scale(0.996264)"/>
       <use xlink:href="#CMR17-30" transform="translate(91.380954 0)scale(0.996264)"/>
      </g>
     </g>
    </g>
    <g id="xtick_4">
     <g id="line2d_7">
      <path d="M 240.25937 178.497015 
L 240.25937 10.8 
" clip-path="url(#p115cce3f99)" style="fill: none; stroke: #b0b0b0; stroke-width: 0.8; stroke-linecap: square"/>
     </g>
     <g id="line2d_8">
      <g>
       <use xlink:href="#ma7aa62f215" x="240.25937" y="178.497015" style="stroke: #000000; stroke-width: 0.8"/>
      </g>
     </g>
     <g id="text_4">
      <!-- $\mathdefault{640}$ -->
      <g transform="translate(234.302514 190.339953)scale(0.07 -0.07)">
       <defs>
        <path id="CMR17-34" d="M 2150 4122 
C 2150 4256 2144 4256 2029 4256 
L 128 1254 
L 128 1088 
L 1779 1088 
L 1779 457 
C 1779 224 1766 160 1318 160 
L 1197 160 
L 1197 0 
C 1402 0 1747 0 1965 0 
C 2182 0 2528 0 2733 0 
L 2733 160 
L 2611 160 
C 2163 160 2150 224 2150 457 
L 2150 1088 
L 2803 1088 
L 2803 1254 
L 2150 1254 
L 2150 4122 
z
M 1798 3703 
L 1798 1254 
L 256 1254 
L 1798 3703 
z
" transform="scale(0.015625)"/>
       </defs>
       <use xlink:href="#CMR17-36" transform="scale(0.996264)"/>
       <use xlink:href="#CMR17-34" transform="translate(45.690477 0)scale(0.996264)"/>
       <use xlink:href="#CMR17-30" transform="translate(91.380954 0)scale(0.996264)"/>
      </g>
     </g>
    </g>
    <g id="xtick_5">
     <g id="line2d_9">
      <path d="M 296.158375 178.497015 
L 296.158375 10.8 
" clip-path="url(#p115cce3f99)" style="fill: none; stroke: #b0b0b0; stroke-width: 0.8; stroke-linecap: square"/>
     </g>
     <g id="line2d_10">
      <g>
       <use xlink:href="#ma7aa62f215" x="296.158375" y="178.497015" style="stroke: #000000; stroke-width: 0.8"/>
      </g>
     </g>
     <g id="text_5">
      <!-- $\mathdefault{650}$ -->
      <g transform="translate(290.201519 190.339953)scale(0.07 -0.07)">
       <defs>
        <path id="CMR17-35" d="M 730 3692 
C 794 3666 1056 3584 1325 3584 
C 1920 3584 2246 3911 2432 4100 
C 2432 4157 2432 4192 2394 4192 
C 2387 4192 2374 4192 2323 4163 
C 2099 4058 1837 3973 1517 3973 
C 1325 3973 1037 3999 723 4139 
C 653 4171 640 4171 634 4171 
C 602 4171 595 4164 595 4037 
L 595 2203 
C 595 2089 595 2057 659 2057 
C 691 2057 704 2070 736 2114 
C 941 2401 1222 2522 1542 2522 
C 1766 2522 2246 2382 2246 1289 
C 2246 1085 2246 715 2054 421 
C 1894 159 1645 25 1370 25 
C 947 25 518 320 403 814 
C 429 807 480 795 506 795 
C 589 795 749 840 749 1038 
C 749 1210 627 1280 506 1280 
C 358 1280 262 1190 262 1011 
C 262 454 704 -128 1382 -128 
C 2042 -128 2669 440 2669 1264 
C 2669 2030 2170 2624 1549 2624 
C 1222 2624 947 2503 730 2274 
L 730 3692 
z
" transform="scale(0.015625)"/>
       </defs>
       <use xlink:href="#CMR17-36" transform="scale(0.996264)"/>
       <use xlink:href="#CMR17-35" transform="translate(45.690477 0)scale(0.996264)"/>
       <use xlink:href="#CMR17-30" transform="translate(91.380954 0)scale(0.996264)"/>
      </g>
     </g>
    </g>
    <g id="xtick_6">
     <g id="line2d_11">
      <path d="M 352.05738 178.497015 
L 352.05738 10.8 
" clip-path="url(#p115cce3f99)" style="fill: none; stroke: #b0b0b0; stroke-width: 0.8; stroke-linecap: square"/>
     </g>
     <g id="line2d_12">
      <g>
       <use xlink:href="#ma7aa62f215" x="352.05738" y="178.497015" style="stroke: #000000; stroke-width: 0.8"/>
      </g>
     </g>
     <g id="text_6">
      <!-- $\mathdefault{660}$ -->
      <g transform="translate(346.100524 190.339953)scale(0.07 -0.07)">
       <use xlink:href="#CMR17-36" transform="scale(0.996264)"/>
       <use xlink:href="#CMR17-36" transform="translate(45.690477 0)scale(0.996264)"/>
       <use xlink:href="#CMR17-30" transform="translate(91.380954 0)scale(0.996264)"/>
      </g>
     </g>
    </g>
    <g id="xtick_7">
     <g id="line2d_13">
      <path d="M 407.956385 178.497015 
L 407.956385 10.8 
" clip-path="url(#p115cce3f99)" style="fill: none; stroke: #b0b0b0; stroke-width: 0.8; stroke-linecap: square"/>
     </g>
     <g id="line2d_14">
      <g>
       <use xlink:href="#ma7aa62f215" x="407.956385" y="178.497015" style="stroke: #000000; stroke-width: 0.8"/>
      </g>
     </g>
     <g id="text_7">
      <!-- $\mathdefault{670}$ -->
      <g transform="translate(401.999529 190.339953)scale(0.07 -0.07)">
       <defs>
        <path id="CMR17-37" d="M 2886 3941 
L 2886 4081 
L 1382 4081 
C 634 4081 621 4165 595 4288 
L 480 4288 
L 294 3094 
L 410 3094 
C 429 3215 474 3540 550 3661 
C 589 3712 1062 3712 1171 3712 
L 2579 3712 
L 1869 2661 
C 1395 1954 1069 999 1069 165 
C 1069 89 1069 -128 1299 -128 
C 1530 -128 1530 89 1530 171 
L 1530 465 
C 1530 1508 1709 2196 2003 2636 
L 2886 3941 
z
" transform="scale(0.015625)"/>
       </defs>
       <use xlink:href="#CMR17-36" transform="scale(0.996264)"/>
       <use xlink:href="#CMR17-37" transform="translate(45.690477 0)scale(0.996264)"/>
       <use xlink:href="#CMR17-30" transform="translate(91.380954 0)scale(0.996264)"/>
      </g>
     </g>
    </g>
    <g id="xtick_8">
     <g id="line2d_15">
      <path d="M 463.85539 178.497015 
L 463.85539 10.8 
" clip-path="url(#p115cce3f99)" style="fill: none; stroke: #b0b0b0; stroke-width: 0.8; stroke-linecap: square"/>
     </g>
     <g id="line2d_16">
      <g>
       <use xlink:href="#ma7aa62f215" x="463.85539" y="178.497015" style="stroke: #000000; stroke-width: 0.8"/>
      </g>
     </g>
     <g id="text_8">
      <!-- $\mathdefault{680}$ -->
      <g transform="translate(457.898534 190.339953)scale(0.07 -0.07)">
       <defs>
        <path id="CMR17-38" d="M 1741 2264 
C 2144 2467 2554 2773 2554 3263 
C 2554 3841 1990 4179 1472 4179 
C 890 4179 378 3759 378 3180 
C 378 3021 416 2747 666 2505 
C 730 2442 998 2251 1171 2130 
C 883 1983 211 1634 211 934 
C 211 279 838 -128 1459 -128 
C 2144 -128 2720 362 2720 1010 
C 2720 1590 2330 1857 2074 2029 
L 1741 2264 
z
M 902 2822 
C 851 2854 595 3051 595 3351 
C 595 3739 998 4032 1459 4032 
C 1965 4032 2336 3676 2336 3262 
C 2336 2669 1670 2331 1638 2331 
C 1632 2331 1626 2331 1574 2370 
L 902 2822 
z
M 2080 1519 
C 2176 1449 2483 1240 2483 851 
C 2483 381 2010 25 1472 25 
C 890 25 448 438 448 940 
C 448 1443 838 1862 1280 2060 
L 2080 1519 
z
" transform="scale(0.015625)"/>
       </defs>
       <use xlink:href="#CMR17-36" transform="scale(0.996264)"/>
       <use xlink:href="#CMR17-38" transform="translate(45.690477 0)scale(0.996264)"/>
       <use xlink:href="#CMR17-30" transform="translate(91.380954 0)scale(0.996264)"/>
      </g>
     </g>
    </g>
    <g id="text_9">
     <!-- $x_{\mathrm{glob}}$ in m -->
     <g transform="translate(246.190695 202.349605)scale(0.1 -0.1)">
      <defs>
       <path id="CMMI12-78" d="M 3034 2606 
C 2829 2567 2752 2414 2752 2293 
C 2752 2139 2874 2088 2963 2088 
C 3155 2088 3290 2254 3290 2427 
C 3290 2695 2982 2816 2714 2816 
C 2323 2816 2106 2433 2048 2312 
C 1901 2816 1504 2816 1389 2816 
C 736 2816 390 1980 390 1839 
C 390 1814 416 1782 461 1782 
C 512 1782 525 1820 538 1846 
C 755 2555 1184 2689 1370 2689 
C 1658 2689 1715 2420 1715 2267 
C 1715 2127 1677 1980 1600 1673 
L 1382 798 
C 1286 415 1101 64 762 64 
C 730 64 570 64 435 147 
C 666 192 717 383 717 460 
C 717 588 621 664 499 664 
C 346 664 179 530 179 326 
C 179 57 480 -64 755 -64 
C 1062 -64 1280 179 1414 441 
C 1517 64 1837 -64 2074 -64 
C 2726 -64 3072 773 3072 913 
C 3072 945 3046 971 3008 971 
C 2950 971 2944 939 2925 888 
C 2752 326 2381 64 2093 64 
C 1869 64 1747 230 1747 492 
C 1747 632 1773 734 1875 1156 
L 2099 2024 
C 2195 2408 2413 2689 2707 2689 
C 2720 2689 2899 2689 3034 2606 
z
" transform="scale(0.015625)"/>
       <path id="CMR17-67" d="M 710 1164 
C 832 1068 1043 960 1299 960 
C 1805 960 2240 1357 2240 1888 
C 2240 2054 2189 2310 1997 2509 
C 2176 2692 2438 2752 2586 2752 
C 2611 2752 2650 2752 2682 2734 
C 2656 2728 2598 2703 2598 2605 
C 2598 2527 2656 2471 2739 2471 
C 2835 2471 2886 2533 2886 2614 
C 2886 2731 2790 2854 2586 2854 
C 2330 2854 2106 2738 1926 2580 
C 1734 2753 1504 2816 1299 2816 
C 794 2816 358 2419 358 1888 
C 358 1522 570 1292 634 1228 
C 442 1004 442 743 442 711 
C 442 545 506 302 723 168 
C 390 85 128 -169 128 -486 
C 128 -943 736 -1280 1466 -1280 
C 2170 -1280 2803 -956 2803 -479 
C 2803 384 1856 384 1363 384 
C 1216 384 954 384 922 391 
C 723 423 589 602 589 826 
C 589 883 589 1024 710 1164 
z
M 1299 1068 
C 736 1068 736 1760 736 1889 
C 736 2016 736 2708 1299 2708 
C 1862 2708 1862 2016 1862 1889 
C 1862 1760 1862 1068 1299 1068 
z
M 1466 -1171 
C 826 -1171 384 -835 384 -486 
C 384 -289 493 -105 634 -4 
C 794 104 858 104 1293 104 
C 1818 104 2547 104 2547 -486 
C 2547 -835 2106 -1171 1466 -1171 
z
" transform="scale(0.015625)"/>
       <path id="CMR17-6c" d="M 979 4396 
L 218 4326 
L 218 4160 
C 595 4160 653 4122 653 3817 
L 653 426 
C 653 184 627 153 218 153 
L 218 -13 
C 371 0 653 0 813 0 
C 979 0 1261 0 1414 -13 
L 1414 153 
C 1005 153 979 178 979 426 
L 979 4396 
z
" transform="scale(0.015625)"/>
       <path id="CMR17-6f" d="M 2758 1356 
C 2758 2176 2163 2816 1466 2816 
C 768 2816 173 2176 173 1356 
C 173 551 768 -64 1466 -64 
C 2163 -64 2758 551 2758 1356 
z
M 1466 51 
C 1165 51 909 230 762 480 
C 602 767 582 1126 582 1408 
C 582 1677 595 2010 762 2298 
C 890 2509 1139 2714 1466 2714 
C 1754 2714 1997 2554 2150 2330 
C 2349 2029 2349 1607 2349 1408 
C 2349 1158 2336 775 2163 467 
C 1984 173 1709 51 1466 51 
z
" transform="scale(0.015625)"/>
       <path id="CMR17-62" d="M 960 4396 
L 198 4326 
L 198 4160 
C 576 4160 634 4122 634 3817 
L 634 -13 
L 749 -13 
L 934 441 
C 1120 141 1395 -64 1766 -64 
C 2406 -64 3053 500 3053 1370 
C 3053 2188 2477 2790 1830 2790 
C 1434 2790 1152 2579 960 2330 
L 960 4396 
z
M 973 2004 
C 973 2118 973 2138 1062 2272 
C 1312 2657 1670 2688 1792 2688 
C 1984 2688 2643 2585 2643 1376 
C 2643 108 1888 38 1734 38 
C 1536 38 1248 114 1043 486 
C 973 608 973 621 973 735 
L 973 2004 
z
" transform="scale(0.015625)"/>
       <path id="CMR17-69" d="M 992 3909 
C 992 4049 877 4170 730 4170 
C 589 4170 467 4056 467 3909 
C 467 3769 582 3648 730 3648 
C 870 3648 992 3763 992 3909 
z
M 243 2706 
L 243 2541 
C 602 2541 653 2502 653 2197 
L 653 427 
C 653 184 627 153 218 153 
L 218 -13 
C 371 0 646 0 806 0 
C 960 0 1222 0 1370 -13 
L 1370 153 
C 992 153 979 191 979 420 
L 979 2776 
L 243 2706 
z
" transform="scale(0.015625)"/>
       <path id="CMR17-6e" d="M 2656 1933 
C 2656 2259 2592 2790 1837 2790 
C 1331 2790 1069 2400 973 2144 
L 966 2144 
L 966 2790 
L 211 2720 
L 211 2554 
C 589 2554 646 2515 646 2208 
L 646 428 
C 646 184 621 153 211 153 
L 211 -13 
C 365 0 646 0 813 0 
C 979 0 1267 0 1421 -13 
L 1421 153 
C 1011 153 986 178 986 428 
L 986 1658 
C 986 2247 1344 2688 1792 2688 
C 2266 2688 2317 2266 2317 1958 
L 2317 428 
C 2317 184 2291 153 1882 153 
L 1882 -13 
C 2035 0 2317 0 2483 0 
C 2650 0 2938 0 3091 -13 
L 3091 153 
C 2682 153 2656 178 2656 428 
L 2656 1933 
z
" transform="scale(0.015625)"/>
       <path id="CMR17-6d" d="M 4326 1933 
C 4326 2252 4269 2790 3507 2790 
C 3072 2790 2771 2496 2656 2151 
L 2650 2151 
C 2573 2676 2195 2790 1837 2790 
C 1331 2790 1069 2400 973 2144 
L 966 2144 
L 966 2790 
L 211 2720 
L 211 2554 
C 589 2554 646 2515 646 2208 
L 646 428 
C 646 184 621 153 211 153 
L 211 -13 
C 365 0 646 0 813 0 
C 979 0 1267 0 1421 -13 
L 1421 153 
C 1011 153 986 178 986 428 
L 986 1658 
C 986 2247 1344 2688 1792 2688 
C 2266 2688 2317 2266 2317 1958 
L 2317 428 
C 2317 184 2291 153 1882 153 
L 1882 -13 
C 2035 0 2317 0 2483 0 
C 2650 0 2938 0 3091 -13 
L 3091 153 
C 2682 153 2656 178 2656 428 
L 2656 1658 
C 2656 2247 3014 2688 3462 2688 
C 3936 2688 3987 2266 3987 1958 
L 3987 428 
C 3987 184 3962 153 3552 153 
L 3552 -13 
C 3706 0 3987 0 4154 0 
C 4320 0 4608 0 4762 -13 
L 4762 153 
C 4352 153 4326 178 4326 428 
L 4326 1933 
z
" transform="scale(0.015625)"/>
      </defs>
      <use xlink:href="#CMMI12-78" transform="scale(0.996264)"/>
      <use xlink:href="#CMR17-67" transform="translate(55.43406 -14.943915)scale(0.697382)"/>
      <use xlink:href="#CMR17-6c" transform="translate(87.417241 -14.943915)scale(0.697382)"/>
      <use xlink:href="#CMR17-6f" transform="translate(104.8269 -14.943915)scale(0.697382)"/>
      <use xlink:href="#CMR17-62" transform="translate(136.810082 -14.943915)scale(0.697382)"/>
      <use xlink:href="#CMR17-69" transform="translate(203.010789 0)scale(0.996264)"/>
      <use xlink:href="#CMR17-6e" transform="translate(227.881847 0)scale(0.996264)"/>
      <use xlink:href="#CMR17-6d" transform="translate(308.853184 0)scale(0.996264)"/>
     </g>
    </g>
   </g>
   <g id="matplotlib.axis_2">
    <g id="ytick_1">
     <g id="line2d_17">
      <path d="M 43.217746 172.907114 
L 493.2 172.907114 
" clip-path="url(#p115cce3f99)" style="fill: none; stroke: #b0b0b0; stroke-width: 0.8; stroke-linecap: square"/>
     </g>
     <g id="line2d_18">
      <defs>
       <path id="m5377fed87a" d="M 0 0 
L -3.5 0 
" style="stroke: #000000; stroke-width: 0.8"/>
      </defs>
      <g>
       <use xlink:href="#m5377fed87a" x="43.217746" y="172.907114" style="stroke: #000000; stroke-width: 0.8"/>
      </g>
     </g>
     <g id="text_10">
      <!-- $\mathdefault{810}$ -->
      <g transform="translate(24.304033 175.328583)scale(0.07 -0.07)">
       <use xlink:href="#CMR17-38" transform="scale(0.996264)"/>
       <use xlink:href="#CMR17-31" transform="translate(45.690477 0)scale(0.996264)"/>
       <use xlink:href="#CMR17-30" transform="translate(91.380954 0)scale(0.996264)"/>
      </g>
     </g>
    </g>
    <g id="ytick_2">
     <g id="line2d_19">
      <path d="M 43.217746 144.957612 
L 493.2 144.957612 
" clip-path="url(#p115cce3f99)" style="fill: none; stroke: #b0b0b0; stroke-width: 0.8; stroke-linecap: square"/>
     </g>
     <g id="line2d_20">
      <g>
       <use xlink:href="#m5377fed87a" x="43.217746" y="144.957612" style="stroke: #000000; stroke-width: 0.8"/>
      </g>
     </g>
     <g id="text_11">
      <!-- $\mathdefault{815}$ -->
      <g transform="translate(24.304033 147.379081)scale(0.07 -0.07)">
       <use xlink:href="#CMR17-38" transform="scale(0.996264)"/>
       <use xlink:href="#CMR17-31" transform="translate(45.690477 0)scale(0.996264)"/>
       <use xlink:href="#CMR17-35" transform="translate(91.380954 0)scale(0.996264)"/>
      </g>
     </g>
    </g>
    <g id="ytick_3">
     <g id="line2d_21">
      <path d="M 43.217746 117.008109 
L 493.2 117.008109 
" clip-path="url(#p115cce3f99)" style="fill: none; stroke: #b0b0b0; stroke-width: 0.8; stroke-linecap: square"/>
     </g>
     <g id="line2d_22">
      <g>
       <use xlink:href="#m5377fed87a" x="43.217746" y="117.008109" style="stroke: #000000; stroke-width: 0.8"/>
      </g>
     </g>
     <g id="text_12">
      <!-- $\mathdefault{820}$ -->
      <g transform="translate(24.304033 119.429579)scale(0.07 -0.07)">
       <use xlink:href="#CMR17-38" transform="scale(0.996264)"/>
       <use xlink:href="#CMR17-32" transform="translate(45.690477 0)scale(0.996264)"/>
       <use xlink:href="#CMR17-30" transform="translate(91.380954 0)scale(0.996264)"/>
      </g>
     </g>
    </g>
    <g id="ytick_4">
     <g id="line2d_23">
      <path d="M 43.217746 89.058607 
L 493.2 89.058607 
" clip-path="url(#p115cce3f99)" style="fill: none; stroke: #b0b0b0; stroke-width: 0.8; stroke-linecap: square"/>
     </g>
     <g id="line2d_24">
      <g>
       <use xlink:href="#m5377fed87a" x="43.217746" y="89.058607" style="stroke: #000000; stroke-width: 0.8"/>
      </g>
     </g>
     <g id="text_13">
      <!-- $\mathdefault{825}$ -->
      <g transform="translate(24.304033 91.480076)scale(0.07 -0.07)">
       <use xlink:href="#CMR17-38" transform="scale(0.996264)"/>
       <use xlink:href="#CMR17-32" transform="translate(45.690477 0)scale(0.996264)"/>
       <use xlink:href="#CMR17-35" transform="translate(91.380954 0)scale(0.996264)"/>
      </g>
     </g>
    </g>
    <g id="ytick_5">
     <g id="line2d_25">
      <path d="M 43.217746 61.109104 
L 493.2 61.109104 
" clip-path="url(#p115cce3f99)" style="fill: none; stroke: #b0b0b0; stroke-width: 0.8; stroke-linecap: square"/>
     </g>
     <g id="line2d_26">
      <g>
       <use xlink:href="#m5377fed87a" x="43.217746" y="61.109104" style="stroke: #000000; stroke-width: 0.8"/>
      </g>
     </g>
     <g id="text_14">
      <!-- $\mathdefault{830}$ -->
      <g transform="translate(24.304033 63.530574)scale(0.07 -0.07)">
       <use xlink:href="#CMR17-38" transform="scale(0.996264)"/>
       <use xlink:href="#CMR17-33" transform="translate(45.690477 0)scale(0.996264)"/>
       <use xlink:href="#CMR17-30" transform="translate(91.380954 0)scale(0.996264)"/>
      </g>
     </g>
    </g>
    <g id="ytick_6">
     <g id="line2d_27">
      <path d="M 43.217746 33.159602 
L 493.2 33.159602 
" clip-path="url(#p115cce3f99)" style="fill: none; stroke: #b0b0b0; stroke-width: 0.8; stroke-linecap: square"/>
     </g>
     <g id="line2d_28">
      <g>
       <use xlink:href="#m5377fed87a" x="43.217746" y="33.159602" style="stroke: #000000; stroke-width: 0.8"/>
      </g>
     </g>
     <g id="text_15">
      <!-- $\mathdefault{835}$ -->
      <g transform="translate(24.304033 35.581071)scale(0.07 -0.07)">
       <use xlink:href="#CMR17-38" transform="scale(0.996264)"/>
       <use xlink:href="#CMR17-33" transform="translate(45.690477 0)scale(0.996264)"/>
       <use xlink:href="#CMR17-35" transform="translate(91.380954 0)scale(0.996264)"/>
      </g>
     </g>
    </g>
    <g id="text_16">
     <!-- $y_{\mathrm{glob}}$ in m -->
     <g transform="translate(17.453638 116.261976)rotate(-90)scale(0.1 -0.1)">
      <defs>
       <path id="CMMI12-79" d="M 1683 -700 
C 1510 -939 1261 -1152 947 -1152 
C 870 -1152 563 -1152 467 -889 
C 486 -895 518 -895 531 -895 
C 723 -895 851 -729 851 -582 
C 851 -435 730 -384 634 -384 
C 531 -384 307 -458 307 -759 
C 307 -1071 582 -1286 947 -1286 
C 1587 -1286 2234 -700 2413 6 
L 3040 2485 
C 3046 2517 3059 2556 3059 2594 
C 3059 2689 2982 2753 2886 2753 
C 2829 2753 2694 2727 2643 2535 
L 2170 658 
C 2138 543 2138 530 2086 460 
C 1958 281 1747 64 1440 64 
C 1082 64 1050 415 1050 588 
C 1050 952 1222 1443 1395 1903 
C 1466 2088 1504 2178 1504 2305 
C 1504 2574 1312 2816 998 2816 
C 410 2816 173 1890 173 1839 
C 173 1814 198 1782 243 1782 
C 301 1782 307 1807 333 1897 
C 486 2433 730 2689 979 2689 
C 1037 2689 1146 2689 1146 2478 
C 1146 2312 1075 2127 979 1884 
C 666 1047 666 837 666 683 
C 666 77 1101 -64 1421 -64 
C 1606 -64 1837 -6 2061 230 
L 2067 224 
C 1971 -147 1907 -392 1683 -700 
z
" transform="scale(0.015625)"/>
      </defs>
      <use xlink:href="#CMMI12-79" transform="scale(0.996264)"/>
      <use xlink:href="#CMR17-67" transform="translate(47.564188 -14.943915)scale(0.697382)"/>
      <use xlink:href="#CMR17-6c" transform="translate(79.54737 -14.943915)scale(0.697382)"/>
      <use xlink:href="#CMR17-6f" transform="translate(96.957029 -14.943915)scale(0.697382)"/>
      <use xlink:href="#CMR17-62" transform="translate(128.940211 -14.943915)scale(0.697382)"/>
      <use xlink:href="#CMR17-69" transform="translate(195.140917 0)scale(0.996264)"/>
      <use xlink:href="#CMR17-6e" transform="translate(220.011976 0)scale(0.996264)"/>
      <use xlink:href="#CMR17-6d" transform="translate(300.983312 0)scale(0.996264)"/>
     </g>
    </g>
   </g>
   <g id="line2d_29">
    <path d="M 213.955216 122.86495 
L 215.052571 133.350236 
L 242.411051 130.486988 
L 241.313695 120.001702 
L 213.955216 122.86495 
" clip-path="url(#p115cce3f99)" style="fill: none; stroke-dasharray: 12.8,3.2,2,3.2; stroke-dashoffset: 0; stroke: #000000; stroke-width: 2"/>
   </g>
   <g id="line2d_30">
    <path d="M 228.183133 126.675969 
" clip-path="url(#p115cce3f99)" style="fill: none; stroke: #000000; stroke-width: 1.5; stroke-linecap: square"/>
    <defs>
     <path id="mc0a28502b6" d="M 0 -4 
L -0.898056 -1.236068 
L -3.804226 -1.236068 
L -1.453085 0.472136 
L -2.351141 3.236068 
L -0 1.527864 
L 2.351141 3.236068 
L 1.453085 0.472136 
L 3.804226 -1.236068 
L 0.898056 -1.236068 
z
" style="stroke: #000000; stroke-linejoin: bevel"/>
    </defs>
    <g clip-path="url(#p115cce3f99)">
     <use xlink:href="#mc0a28502b6" x="228.183133" y="126.675969" style="fill-opacity: 0; stroke: #000000; stroke-linejoin: bevel"/>
    </g>
   </g>
   <g id="line2d_31">
    <path d="M 178.454191 128.313197 
L 179.721608 138.779288 
L 207.030004 135.472311 
L 205.762587 125.00622 
L 178.454191 128.313197 
" clip-path="url(#p115cce3f99)" style="fill: none; stroke-dasharray: 12.8,3.2,2,3.2; stroke-dashoffset: 0; stroke: #000000; stroke-width: 2"/>
   </g>
   <g id="line2d_32">
    <path d="M 192.742097 131.892754 
" clip-path="url(#p115cce3f99)" style="fill: none; stroke: #000000; stroke-width: 1.5; stroke-linecap: square"/>
    <defs>
     <path id="m2a00a0c353" d="M 0 -4 
L -3.804226 -1.236068 
L -2.351141 3.236068 
L 2.351141 3.236068 
L 3.804226 -1.236068 
z
" style="stroke: #000000; stroke-linejoin: miter"/>
    </defs>
    <g clip-path="url(#p115cce3f99)">
     <use xlink:href="#m2a00a0c353" x="192.742097" y="131.892754" style="fill-opacity: 0; stroke: #000000; stroke-linejoin: miter"/>
    </g>
   </g>
   <g id="line2d_33">
    <path d="M 181.232897 132.198635 
L 182.462321 142.669257 
L 209.782539 139.461412 
L 208.553114 128.99079 
L 181.232897 132.198635 
" clip-path="url(#p115cce3f99)" style="fill: none; stroke-dasharray: 12.8,3.2,2,3.2; stroke-dashoffset: 0; stroke: #000000; stroke-width: 2"/>
   </g>
   <g id="line2d_34">
    <path d="M 195.507718 135.830023 
" clip-path="url(#p115cce3f99)" style="fill: none; stroke: #000000; stroke-width: 1.5; stroke-linecap: square"/>
    <g clip-path="url(#p115cce3f99)">
     <use xlink:href="#m2a00a0c353" x="195.507718" y="135.830023" style="fill-opacity: 0; stroke: #000000; stroke-linejoin: miter"/>
    </g>
   </g>
   <g id="line2d_35">
    <path d="M 272.512396 49.766804 
L 273.372792 60.274188 
L 300.788932 58.029221 
L 299.928536 47.521837 
L 272.512396 49.766804 
" clip-path="url(#p115cce3f99)" style="fill: none; stroke-dasharray: 12.8,3.2,2,3.2; stroke-dashoffset: 0; stroke: #000000; stroke-width: 2"/>
   </g>
   <g id="line2d_36">
    <path d="M 286.650664 53.898012 
" clip-path="url(#p115cce3f99)" style="fill: none; stroke: #000000; stroke-width: 1.5; stroke-linecap: square"/>
    <g clip-path="url(#p115cce3f99)">
     <use xlink:href="#m2a00a0c353" x="286.650664" y="53.898012" style="fill-opacity: 0; stroke: #000000; stroke-linejoin: miter"/>
    </g>
   </g>
   <g id="line2d_37">
    <path d="M 271.69729 47.338807 
L 272.554976 57.846413 
L 299.971694 55.608517 
L 299.114008 45.100911 
L 271.69729 47.338807 
" clip-path="url(#p115cce3f99)" style="fill: none; stroke-dasharray: 12.8,3.2,2,3.2; stroke-dashoffset: 0; stroke: #000000; stroke-width: 2"/>
   </g>
   <g id="line2d_38">
    <path d="M 285.834492 51.473662 
" clip-path="url(#p115cce3f99)" style="fill: none; stroke: #000000; stroke-width: 1.5; stroke-linecap: square"/>
    <g clip-path="url(#p115cce3f99)">
     <use xlink:href="#m2a00a0c353" x="285.834492" y="51.473662" style="fill-opacity: 0; stroke: #000000; stroke-linejoin: miter"/>
    </g>
   </g>
   <g id="line2d_39">
    <path d="M 387.875425 102.067776 
L 388.762554 112.572937 
L 416.172893 110.258215 
L 415.285763 99.753054 
L 387.875425 102.067776 
" clip-path="url(#p115cce3f99)" style="fill: none; stroke: #0065bd; stroke-width: 2; stroke-linecap: square"/>
   </g>
   <g id="line2d_40">
    <path d="M 162.423645 133.16999 
L 164.36228 143.532765 
L 191.4011 138.474426 
L 189.462465 128.111651 
L 162.423645 133.16999 
" clip-path="url(#p115cce3f99)" style="fill: none; stroke: #e37222; stroke-width: 2; stroke-linecap: square"/>
   </g>
   <g id="line2d_41">
    <path d="M 213.955216 122.86495 
L 215.052571 133.350236 
L 242.411051 130.486988 
L 241.313695 120.001702 
L 213.955216 122.86495 
" clip-path="url(#p115cce3f99)" style="fill: none; stroke-dasharray: 7.4,3.2; stroke-dashoffset: 0; stroke: #e37222; stroke-width: 2"/>
   </g>
   <g id="line2d_42">
    <path d="M 228.183133 126.675969 
" clip-path="url(#p115cce3f99)" style="fill: none; stroke: #e37222; stroke-width: 1.5; stroke-linecap: square"/>
    <defs>
     <path id="mfe04047321" d="M 0 -6 
L -1.347084 -1.854102 
L -5.706339 -1.854102 
L -2.179628 0.708204 
L -3.526712 4.854102 
L -0 2.291796 
L 3.526712 4.854102 
L 2.179628 0.708204 
L 5.706339 -1.854102 
L 1.347084 -1.854102 
z
" style="stroke: #e37222; stroke-linejoin: bevel"/>
    </defs>
    <g clip-path="url(#p115cce3f99)">
     <use xlink:href="#mfe04047321" x="228.183133" y="126.675969" style="fill-opacity: 0; stroke: #e37222; stroke-linejoin: bevel"/>
    </g>
   </g>
   <g id="line2d_43">
    <path d="M 179.84352 130.25591 
L 181.091943 140.724284 
L 208.406295 137.466867 
L 207.157872 126.998494 
L 179.84352 130.25591 
" clip-path="url(#p115cce3f99)" style="fill: none; stroke-dasharray: 7.4,3.2; stroke-dashoffset: 0; stroke: #e37222; stroke-width: 2"/>
   </g>
   <g id="line2d_44">
    <path d="M 194.124907 133.861389 
" clip-path="url(#p115cce3f99)" style="fill: none; stroke: #e37222; stroke-width: 1.5; stroke-linecap: square"/>
    <defs>
     <path id="m8b794d4830" d="M 0 -6 
L -5.706339 -1.854102 
L -3.526712 4.854102 
L 3.526712 4.854102 
L 5.706339 -1.854102 
z
" style="stroke: #e37222; stroke-linejoin: miter"/>
    </defs>
    <g clip-path="url(#p115cce3f99)">
     <use xlink:href="#m8b794d4830" x="194.124907" y="133.861389" style="fill-opacity: 0; stroke: #e37222; stroke-linejoin: miter"/>
    </g>
   </g>
   <g id="line2d_45">
    <path d="M 458.665462 44.511288 
L 458.573158 55.053436 
L 486.080004 55.294277 
L 486.172308 44.752129 
L 458.665462 44.511288 
" clip-path="url(#p115cce3f99)" style="fill: none; stroke: #b0c4de; stroke-width: 2; stroke-linecap: square"/>
   </g>
   <g id="line2d_46">
    <path d="M 505 38.20472 
L 487.845612 38.45665 
L 470.60467 38.981543 
L 453.384539 39.731887 
L 419.010863 41.512178 
L 401.859532 42.665648 
L 384.7383 44.119357 
L 367.655127 45.952453 
L 350.617715 48.191974 
L 333.627165 50.740607 
L 299.743742 55.940306 
L 249.068431 63.244394 
L 232.2451 65.970914 
L 215.469746 68.957939 
L 198.740038 72.158108 
L 115.468313 88.721606 
L 90.603563 93.920173 
L 57.539581 101.098637 
L -1 114.036404 
L -1 114.036404 
" clip-path="url(#p115cce3f99)" style="fill: none; stroke: #cccccc; stroke-width: 1.5; stroke-linecap: square"/>
   </g>
   <g id="line2d_47">
    <path d="M 505 117.779757 
L 494.75771 117.943556 
L 478.23072 118.36929 
L 461.709806 118.988208 
L 445.197485 119.864677 
L 428.698086 121.036288 
L 412.215432 122.46464 
L 395.753311 124.155922 
L 379.316031 126.126787 
L 362.904848 128.319095 
L 346.519696 130.685668 
L 330.163202 133.247095 
L 305.680686 137.380718 
L 281.256395 141.790566 
L 256.889922 146.472058 
L 224.472331 152.954807 
L 111.274812 175.868678 
L 54.661888 187.128397 
L 30.45334 192.351016 
L -1 199.257193 
L -1 199.257193 
" clip-path="url(#p115cce3f99)" style="fill: none; stroke: #cccccc; stroke-width: 1.5; stroke-linecap: square"/>
   </g>
   <g id="patch_3">
    <path d="M 43.217746 178.497015 
L 43.217746 10.8 
" style="fill: none; stroke: #000000; stroke-width: 0.8; stroke-linejoin: miter; stroke-linecap: square"/>
   </g>
   <g id="patch_4">
    <path d="M 493.2 178.497015 
L 493.2 10.8 
" style="fill: none; stroke: #000000; stroke-width: 0.8; stroke-linejoin: miter; stroke-linecap: square"/>
   </g>
   <g id="patch_5">
    <path d="M 43.217746 178.497015 
L 493.2 178.497015 
" style="fill: none; stroke: #000000; stroke-width: 0.8; stroke-linejoin: miter; stroke-linecap: square"/>
   </g>
   <g id="patch_6">
    <path d="M 43.217746 10.8 
L 493.2 10.8 
" style="fill: none; stroke: #000000; stroke-width: 0.8; stroke-linejoin: miter; stroke-linecap: square"/>
   </g>
   <g id="legend_1">
    <g id="patch_7">
     <path d="M 430.005263 174.997015 
L 488.3 174.997015 
Q 489.7 174.997015 489.7 173.597015 
L 489.7 135.272958 
Q 489.7 133.872958 488.3 133.872958 
L 430.005263 133.872958 
Q 428.605263 133.872958 428.605263 135.272958 
L 428.605263 173.597015 
Q 428.605263 174.997015 430.005263 174.997015 
z
" style="fill: #ffffff; opacity: 0.8; stroke: #cccccc; stroke-linejoin: miter"/>
    </g>
    <g id="line2d_48">
     <path d="M 431.405263 139.122958 
L 438.405263 139.122958 
L 445.405263 139.122958 
" style="fill: none; stroke: #0065bd; stroke-width: 1.4; stroke-linecap: square"/>
    </g>
    <g id="text_17">
     <!-- Ego -->
     <g transform="translate(451.005263 141.572958)scale(0.07 -0.07)">
      <defs>
       <path id="CMR17-45" d="M 3885 1615 
L 3770 1615 
C 3629 676 3546 166 2419 166 
L 1530 166 
C 1274 166 1261 197 1261 414 
L 1261 2176 
L 1862 2176 
C 2464 2176 2522 1960 2522 1430 
L 2637 1430 
L 2637 3081 
L 2522 3081 
C 2522 2557 2464 2342 1862 2342 
L 1261 2342 
L 1261 3913 
C 1261 4128 1274 4160 1530 4160 
L 2406 4160 
C 3398 4160 3514 3769 3603 2929 
L 3718 2929 
L 3565 4325 
L 326 4325 
L 326 4160 
C 768 4160 838 4160 838 3874 
L 838 451 
C 838 166 768 166 326 166 
L 326 0 
L 3654 0 
L 3885 1615 
z
" transform="scale(0.015625)"/>
      </defs>
      <use xlink:href="#CMR17-45" transform="scale(0.996264)"/>
      <use xlink:href="#CMR17-67" transform="translate(62.586301 0)scale(0.996264)"/>
      <use xlink:href="#CMR17-6f" transform="translate(108.276778 0)scale(0.996264)"/>
     </g>
    </g>
    <g id="line2d_49">
     <path d="M 431.405263 148.878972 
L 438.405263 148.878972 
L 445.405263 148.878972 
" style="fill: none; stroke: #e37222; stroke-width: 1.4; stroke-linecap: square"/>
    </g>
    <g id="text_18">
     <!-- Object -->
     <g transform="translate(451.005263 151.328972)scale(0.07 -0.07)">
      <defs>
       <path id="CMR17-4f" d="M 4307 2135 
C 4307 3437 3366 4416 2304 4416 
C 1216 4416 294 3424 294 2135 
C 294 845 1229 -128 2298 -128 
C 3392 -128 4307 864 4307 2135 
z
M 2304 -13 
C 1574 -13 781 711 781 2217 
C 781 3716 1651 4301 2298 4301 
C 2976 4301 3821 3698 3821 2217 
C 3821 686 3008 -13 2304 -13 
z
" transform="scale(0.015625)"/>
       <path id="CMR17-6a" d="M 1165 3963 
C 1165 4103 1050 4224 902 4224 
C 762 4224 640 4110 640 3963 
C 640 3823 755 3702 902 3702 
C 1043 3702 1165 3817 1165 3963 
z
M 365 2754 
L 365 2588 
C 787 2588 838 2543 838 2235 
L 838 -359 
C 838 -678 781 -1178 403 -1178 
C 358 -1178 186 -1178 45 -1082 
C 90 -1075 250 -1031 250 -851 
C 250 -729 166 -621 19 -621 
C -122 -621 -211 -717 -211 -858 
C -211 -1114 70 -1280 397 -1280 
C 838 -1280 1165 -877 1165 -332 
L 1165 2825 
L 365 2754 
z
" transform="scale(0.015625)"/>
       <path id="CMR17-65" d="M 2438 1472 
C 2464 1498 2464 1511 2464 1576 
C 2464 2238 2118 2816 1389 2816 
C 710 2816 173 2169 173 1383 
C 173 551 781 -64 1459 -64 
C 2176 -64 2458 607 2458 740 
C 2458 784 2419 784 2406 784 
C 2362 784 2355 771 2330 696 
C 2189 265 1837 51 1504 51 
C 1229 51 954 203 781 480 
C 582 803 582 1176 582 1472 
L 2438 1472 
z
M 589 1568 
C 634 2505 1126 2714 1382 2714 
C 1818 2714 2112 2297 2118 1568 
L 589 1568 
z
" transform="scale(0.015625)"/>
       <path id="CMR17-63" d="M 2234 2240 
C 2112 2240 1933 2240 1933 2017 
C 1933 1838 2080 1787 2163 1787 
C 2208 1787 2394 1807 2394 2024 
C 2394 2467 1958 2803 1466 2803 
C 787 2803 211 2178 211 1363 
C 211 516 813 -64 1466 -64 
C 2259 -64 2458 677 2458 748 
C 2458 774 2451 793 2406 793 
C 2362 793 2355 787 2330 703 
C 2163 180 1798 51 1523 51 
C 1114 51 621 427 621 1369 
C 621 2338 1094 2688 1472 2688 
C 1722 2688 2093 2573 2234 2240 
z
" transform="scale(0.015625)"/>
       <path id="CMR17-74" d="M 966 2560 
L 1862 2560 
L 1862 2725 
L 966 2725 
L 966 3904 
L 851 3904 
C 838 3245 614 2668 70 2668 
L 70 2560 
L 627 2560 
L 627 771 
C 627 650 627 -64 1370 -64 
C 1747 -64 1965 306 1965 777 
L 1965 1140 
L 1850 1140 
L 1850 783 
C 1850 344 1677 51 1408 51 
C 1222 51 966 178 966 758 
L 966 2560 
z
" transform="scale(0.015625)"/>
      </defs>
      <use xlink:href="#CMR17-4f" transform="scale(0.996264)"/>
      <use xlink:href="#CMR17-62" transform="translate(71.714788 0)scale(0.996264)"/>
      <use xlink:href="#CMR17-6a" transform="translate(127.81496 0)scale(0.996264)"/>
      <use xlink:href="#CMR17-65" transform="translate(155.288472 0)scale(0.996264)"/>
      <use xlink:href="#CMR17-63" transform="translate(195.774133 0)scale(0.996264)"/>
      <use xlink:href="#CMR17-74" transform="translate(236.259793 0)scale(0.996264)"/>
     </g>
    </g>
    <g id="line2d_50">
     <defs>
      <path id="m8b619c20b2" d="M 0 -2.8 
L -0.628639 -0.865248 
L -2.662958 -0.865248 
L -1.01716 0.330495 
L -1.645799 2.265248 
L -0 1.069505 
L 1.645799 2.265248 
L 1.01716 0.330495 
L 2.662958 -0.865248 
L 0.628639 -0.865248 
z
" style="stroke: #000000; stroke-linejoin: bevel"/>
     </defs>
     <g>
      <use xlink:href="#m8b619c20b2" x="438.405263" y="158.634986" style="fill-opacity: 0; stroke: #000000; stroke-linejoin: bevel"/>
     </g>
    </g>
    <g id="text_19">
     <!-- Clustering -->
     <g transform="translate(451.005263 161.084986)scale(0.07 -0.07)">
      <defs>
       <path id="CMR17-43" d="M 3974 4289 
C 3974 4403 3968 4410 3930 4410 
C 3904 4410 3898 4403 3853 4327 
L 3571 3792 
C 3258 4187 2874 4416 2381 4416 
C 1286 4416 294 3456 294 2148 
C 294 826 1286 -128 2387 -128 
C 3366 -128 3974 730 3974 1461 
C 3974 1524 3974 1550 3917 1550 
C 3866 1550 3866 1531 3859 1474 
C 3808 585 3168 38 2477 38 
C 1824 38 781 495 781 2147 
C 781 3805 1843 4250 2464 4250 
C 3187 4250 3712 3628 3834 2745 
C 3846 2668 3846 2655 3904 2655 
C 3974 2655 3974 2668 3974 2783 
L 3974 4289 
z
" transform="scale(0.015625)"/>
       <path id="CMR17-75" d="M 1882 2693 
L 1882 2528 
C 2259 2528 2317 2489 2317 2186 
L 2317 1032 
C 2317 500 2029 38 1555 38 
C 1030 38 986 348 986 678 
L 986 2763 
L 211 2693 
L 211 2528 
C 467 2528 640 2528 646 2274 
L 646 1058 
C 646 633 646 361 813 183 
C 896 101 1056 -64 1517 -64 
C 2061 -64 2272 377 2323 506 
L 2330 506 
L 2330 -63 
L 3091 -63 
L 3091 128 
C 2714 128 2656 166 2656 473 
L 2656 2763 
L 1882 2693 
z
" transform="scale(0.015625)"/>
       <path id="CMR17-73" d="M 1978 2697 
C 1978 2813 1971 2819 1933 2819 
C 1907 2819 1901 2813 1824 2717 
C 1805 2691 1747 2626 1728 2601 
C 1523 2819 1235 2819 1126 2819 
C 416 2819 160 2447 160 2076 
C 160 1498 813 1365 998 1325 
C 1402 1243 1542 1217 1677 1101 
C 1760 1025 1901 884 1901 654 
C 1901 384 1747 38 1158 38 
C 602 38 403 460 288 1021 
C 269 1110 269 1117 218 1117 
C 166 1117 160 1110 160 983 
L 160 63 
C 160 -51 166 -58 205 -58 
C 237 -58 243 -51 275 0 
C 314 57 410 211 448 276 
C 576 103 800 -64 1158 -64 
C 1792 -64 2131 283 2131 784 
C 2131 1112 1958 1285 1875 1362 
C 1683 1561 1459 1606 1190 1657 
C 838 1735 390 1825 390 2217 
C 390 2383 480 2737 1126 2737 
C 1811 2737 1850 2094 1862 1888 
C 1869 1856 1901 1849 1920 1849 
C 1978 1849 1978 1869 1978 1978 
L 1978 2697 
z
" transform="scale(0.015625)"/>
       <path id="CMR17-72" d="M 960 1497 
C 960 2112 1222 2688 1702 2688 
C 1747 2688 1792 2682 1837 2662 
C 1837 2662 1696 2617 1696 2452 
C 1696 2298 1818 2234 1914 2234 
C 1990 2234 2131 2279 2131 2458 
C 2131 2663 1926 2790 1709 2790 
C 1222 2790 1011 2317 947 2093 
L 941 2093 
L 941 2790 
L 198 2720 
L 198 2554 
C 576 2554 634 2515 634 2208 
L 634 428 
C 634 184 608 153 198 153 
L 198 -13 
C 352 0 646 0 813 0 
C 998 0 1325 0 1498 -13 
L 1498 153 
C 1037 153 960 153 960 440 
L 960 1497 
z
" transform="scale(0.015625)"/>
      </defs>
      <use xlink:href="#CMR17-43" transform="scale(0.996264)"/>
      <use xlink:href="#CMR17-6c" transform="translate(66.509881 0)scale(0.996264)"/>
      <use xlink:href="#CMR17-75" transform="translate(91.380939 0)scale(0.996264)"/>
      <use xlink:href="#CMR17-73" transform="translate(142.276309 0)scale(0.996264)"/>
      <use xlink:href="#CMR17-74" transform="translate(178.077646 0)scale(0.996264)"/>
      <use xlink:href="#CMR17-65" transform="translate(213.358414 0)scale(0.996264)"/>
      <use xlink:href="#CMR17-72" transform="translate(253.844075 0)scale(0.996264)"/>
      <use xlink:href="#CMR17-69" transform="translate(289.124843 0)scale(0.996264)"/>
      <use xlink:href="#CMR17-6e" transform="translate(313.995901 0)scale(0.996264)"/>
      <use xlink:href="#CMR17-67" transform="translate(364.891271 0)scale(0.996264)"/>
     </g>
    </g>
    <g id="line2d_51">
     <defs>
      <path id="mddec9660d3" d="M 0 -2.8 
L -2.662958 -0.865248 
L -1.645799 2.265248 
L 1.645799 2.265248 
L 2.662958 -0.865248 
z
" style="stroke: #000000; stroke-linejoin: miter"/>
     </defs>
     <g>
      <use xlink:href="#mddec9660d3" x="438.405263" y="168.391001" style="fill-opacity: 0; stroke: #000000; stroke-linejoin: miter"/>
     </g>
    </g>
    <g id="text_20">
     <!-- RADAR -->
     <g transform="translate(451.005263 170.841001)scale(0.07 -0.07)">
      <defs>
       <path id="CMR17-52" d="M 2509 2146 
C 3117 2268 3629 2676 3629 3186 
C 3629 3785 2950 4326 2054 4326 
L 333 4326 
L 333 4160 
C 774 4160 845 4160 845 3873 
L 845 415 
C 845 128 774 128 333 128 
L 333 -26 
C 518 -26 851 -26 1050 -26 
C 1248 -26 1581 -26 1766 -26 
L 1766 128 
C 1325 128 1254 128 1254 417 
L 1254 2112 
L 2003 2112 
C 2368 2112 2573 1964 2662 1881 
C 2918 1632 2918 1459 2918 1024 
C 2918 595 2918 377 3110 160 
C 3354 -102 3680 -128 3821 -128 
C 4294 -128 4365 396 4365 503 
C 4365 540 4365 585 4307 585 
C 4256 585 4250 547 4250 522 
C 4218 112 4032 -26 3834 -26 
C 3482 -26 3443 375 3405 764 
C 3386 898 3373 993 3360 1133 
C 3322 1452 3270 1917 2509 2146 
z
M 1984 2214 
L 1254 2214 
L 1254 3913 
C 1254 4129 1267 4160 1523 4160 
L 1990 4160 
C 2522 4160 3142 3977 3142 3190 
C 3142 2372 2464 2214 1984 2214 
z
" transform="scale(0.015625)"/>
       <path id="CMR17-41" d="M 2323 4378 
C 2291 4461 2278 4480 2214 4480 
C 2150 4480 2138 4461 2106 4378 
L 749 566 
C 627 223 371 153 147 153 
L 147 -13 
C 262 0 518 0 640 0 
C 800 0 1056 0 1210 -13 
L 1210 153 
C 909 153 864 361 864 439 
C 864 497 877 530 890 569 
L 1229 1536 
L 2906 1536 
L 3290 442 
C 3322 365 3322 352 3322 327 
C 3322 153 3046 153 2925 153 
L 2925 0 
C 3110 0 3443 0 3642 0 
C 3808 0 4128 0 4282 -13 
L 4282 153 
C 3942 153 3827 153 3744 387 
L 2323 4378 
z
M 2067 3893 
L 2848 1702 
L 1286 1702 
L 2067 3893 
z
" transform="scale(0.015625)"/>
       <path id="CMR17-44" d="M 333 4352 
L 333 4186 
C 774 4186 845 4186 845 3900 
L 845 452 
C 845 166 774 166 333 166 
L 333 0 
L 2368 0 
C 3398 0 4224 943 4224 2141 
C 4224 3346 3411 4352 2368 4352 
L 333 4352 
z
M 1523 166 
C 1267 166 1254 197 1254 414 
L 1254 3938 
C 1254 4155 1267 4186 1523 4186 
L 2240 4186 
C 2771 4186 3750 3874 3750 2141 
C 3750 1242 3488 879 3366 707 
C 3213 510 2848 166 2240 166 
L 1523 166 
z
" transform="scale(0.015625)"/>
      </defs>
      <use xlink:href="#CMR17-52" transform="scale(0.996264)"/>
      <use xlink:href="#CMR17-41" transform="translate(67.791102 0)scale(0.996264)"/>
      <use xlink:href="#CMR17-44" transform="translate(136.863532 0)scale(0.996264)"/>
      <use xlink:href="#CMR17-41" transform="translate(204.654634 0)scale(0.996264)"/>
      <use xlink:href="#CMR17-52" transform="translate(273.727064 0)scale(0.996264)"/>
     </g>
    </g>
   </g>
  </g>
 </g>
 <defs>
  <clipPath id="p115cce3f99">
   <rect x="43.217746" y="10.8" width="449.982254" height="167.697015"/>
  </clipPath>
 </defs>
</svg>
